# xmcd
#
# Track frame offsets:
#	150
#	8063
#	28601
#	55389
#	78529
#	94014
#	116638
#	137550
#	149453
#	163599
#	180025
#	196189
#	211993
#	231408
#	249484
#	265409
#	296568
#	328830
#
# Disc length: 4692 seconds
#
# Revision: 0
# Processed by: cddbd v1.5PL3 Copyright (c) Steve Scherf et al.
# Submitted via: dBpowerAMP V4.0
#
DISCID=00125212
DTITLE=Various Artist - NY Blues and Jazz Society Compilation Volume 1
DYEAR=2002
DGENRE=Blues
TTITLE0=Swingadelic - Meddlin' With Edlin
TTITLE1=Fins - New York
TTITLE2=Michael Hill's Blues Mob - Why We Play The Blues
TTITLE3=Dave Keyes - Lay Down Sweet Mary
TTITLE4=Ed Alstrom - Fully Cured Romantic
TTITLE5=Rob Paparozzi and The Hudson River Rats - Astronaut Lover
TTITLE6=Justin Marcus - Louisiana Lady
TTITLE7=Kerry Kearney Band - Went To See The Lord (But He Wasn't Home)
TTITLE8=Chaz DePaulo - Texas Style Sizzle
TTITLE9=Hi-Way 13 Blues Band - 30 Minutes Till Texas
TTITLE10=Nikki Armstrong Project - I Like It Like That
TTITLE11=BC in Bergen with "Secret Agents The Band" - Hard Mans Hand
TTITLE12=Dennis Gruenling and Jumptime - That's Right!
TTITLE13=Calvin Owens and The Calvin Owens Blues Orchestra - The Dog
TTITLE14=Rob McKinnon - Pobrecita
TTITLE15=Melvin Sparks Band - Breez
TTITLE16=Matt Miller Quartet - Dedication
TTITLE17=Ron Levy's Wild Kingdom - Blues For BB
EXTD=NY Blues and Jazz Society\nwww.nybluesandjazz.org
EXTT0=
EXTT1=
EXTT2=
EXTT3=
EXTT4=
EXTT5=
EXTT6=
EXTT7=
EXTT8=
EXTT9=
EXTT10=
EXTT11=
EXTT12=
EXTT13=
EXTT14=
EXTT15=
EXTT16=
EXTT17=
PLAYORDER=
